# xmcd
#
# Track frame offsets: 
#        183
#        11198
#        24488
#        36325
#        49698
#        60100
#        74115
#        85690
#        98520
#        115860
#        127688
#        137975
#        148523
#        160875
#
# Disc length: 2288 seconds
#
# Revision: 3
# Processed by: cddbd v1.5.2PL0 Copyright (c) Steve Scherf et al.
# Submitted via: ExactAudioCopy v1.0b3
#
DISCID=b608ee0e
DTITLE=Dave Dudley - Truck Gold
DYEAR=1900
DGENRE=country
TTITLE0=Get Me Back To Tennessee
TTITLE1=I Have Been Known Not To Go Home
TTITLE2=Six Days On The Road
TTITLE3=A Friend Named Wine
TTITLE4=Been Around The Horn
TTITLE5=Morning Sun
TTITLE6=Sentimental Journey
TTITLE7=Salvation Arms
TTITLE8=The Tavern Telephone
TTITLE9=Mary Lou, You Took The Party With You
TTITLE10=Truck, Drivin Son Of A Gun
TTITLE11=Rollin´Rig
TTITLE12=Homer And Cole
TTITLE13=One More Plane
EXTD=
EXTT0=
EXTT1=
EXTT2=
EXTT3=
EXTT4=
EXTT5=
EXTT6=
EXTT7=
EXTT8=
EXTT9=
EXTT10=
EXTT11=
EXTT12=
EXTT13=
PLAYORDER=
